<svg width="18" height="16" viewBox="0 0 18 16" fill="none" xmlns="http://www.w3.org/2000/svg">
<path d="M6.38359 7.19821C6.72543 7.6656 7.00878 8.05287 7.29213 8.44014C7.28238 8.45283 7.27202 8.46485 7.26227 8.47753C6.91007 8.16438 6.55786 7.85123 6.15081 7.48933C6.02407 8.90887 5.90342 10.253 5.78337 11.5964C5.7657 11.5977 5.74803 11.599 5.73097 11.6004C5.6158 10.303 5.50063 9.00502 5.37937 7.63689C5.12527 7.83453 4.91565 7.99812 4.70665 8.16104C4.69019 8.14702 4.67374 8.133 4.65729 8.11964C4.84131 7.83186 5.02473 7.54475 5.2441 7.20222C3.61347 7.062 2.0322 6.92579 0.450316 6.78958C0.450316 6.76888 0.449707 6.74751 0.449707 6.72681C1.96151 6.59527 3.47271 6.46307 5.04301 6.32619C4.7493 5.91689 4.50008 5.56901 4.25085 5.22181C4.2606 5.20712 4.27035 5.1931 4.2801 5.17841C4.63109 5.43948 4.98207 5.70055 5.37693 5.99434C5.49759 4.71235 5.61275 3.48578 5.72792 2.25921C5.74559 2.25854 5.76266 2.25787 5.78033 2.2572C5.90768 3.51582 6.03443 4.77378 6.16848 6.10051C6.66023 5.66583 7.10323 5.27389 7.54623 4.88261C7.55476 4.89263 7.56268 4.90265 7.57121 4.91266C7.24765 5.37271 6.92469 5.83209 6.55786 6.35423C10.0482 6.43035 13.463 6.50447 16.8779 6.57925C16.8779 6.5886 16.8779 6.59795 16.8779 6.60729C13.4064 6.80293 9.93611 6.99857 6.38359 7.19821Z" fill="#FDFBFA"/>
<path d="M17.3391 6.92803C15.1558 9.28903 13.0103 11.6106 10.8647 13.9316C10.883 13.9523 10.9013 13.9736 10.9196 13.9943C12.6355 12.2002 14.3515 10.4061 16.1021 8.57592C16.3172 8.99858 16.5214 9.39787 16.7468 9.83989C14.1717 11.8964 11.6033 13.9483 9.03424 16.0001C9.02205 15.9861 9.00926 15.9728 8.99707 15.9587C9.46566 15.3698 9.93243 14.7789 10.4028 14.1913C12.2492 11.8851 14.0998 9.58215 15.94 7.27056C16.1216 7.04288 16.3142 6.91601 16.5884 6.92603C16.8169 6.93471 17.046 6.92803 17.3391 6.92803Z" fill="#FDFBFA"/>
<path d="M8.42443 15.964C5.86819 13.9428 3.31256 11.9223 0.737436 9.8865C0.949491 9.48655 1.15058 9.10729 1.3669 8.69933C2.65446 10.0234 3.91643 11.3214 5.02911 12.4658C3.5039 10.7485 1.8361 8.87159 0.146973 6.96997C0.467493 6.98666 0.778263 6.99267 1.0866 7.02472C1.16459 7.03273 1.25051 7.10885 1.30718 7.17829C3.67574 10.0634 6.04125 12.9519 8.40615 15.8398C8.42626 15.8645 8.43966 15.8945 8.45611 15.9226C8.44637 15.9359 8.4354 15.9499 8.42443 15.964Z" fill="#FDFBFA"/>
<path d="M14.4099 6.25884C13.4873 6.25884 12.6056 6.2595 11.7244 6.25817C11.5093 6.25817 11.5587 6.07722 11.5599 5.94435C11.5697 4.88804 11.5861 3.83106 11.5946 2.77475C11.6001 2.11039 11.5959 1.44602 11.5959 0.781657C11.6306 0.758287 11.6647 0.734918 11.6995 0.711548C11.7445 0.793008 11.7805 0.883816 11.8366 0.95526C12.3655 1.62964 12.9054 2.29468 13.4245 2.97774C13.5622 3.15868 13.6762 3.3817 13.7408 3.60605C13.965 4.38993 14.1637 5.18316 14.3696 5.97373C14.3879 6.04717 14.391 6.1253 14.4099 6.25884Z" fill="#FDFBFA"/>
<path d="M9.40537 15.0456C9.23597 15.3174 9.06657 15.5891 8.89717 15.8616C8.88803 15.8575 8.87889 15.8542 8.87036 15.8502C9.07876 15.0884 9.28411 14.3252 9.49617 13.564C10.0757 11.4807 10.6619 9.39951 11.2316 7.31293C11.2962 7.07589 11.3894 6.98709 11.6057 6.9911C12.1304 7.00044 12.6551 6.99377 13.2181 6.99377C12.9396 7.572 12.6685 8.13955 12.3936 8.70509C11.4833 10.5793 10.5705 12.4523 9.66191 14.3272C9.61072 14.4333 9.58635 14.5549 9.54979 14.669C9.50165 14.7952 9.45351 14.9201 9.40537 15.0456Z" fill="#FDFBFA"/>
<path d="M0 6.57026C1.32047 4.71939 2.58609 2.9453 3.85172 1.17188C3.86939 1.17855 3.88706 1.18523 3.90474 1.19191C3.76093 2.07795 3.6159 2.96332 3.4727 3.84937C3.35388 4.58251 3.24298 5.31698 3.11136 6.04678C3.09125 6.15896 2.98583 6.33189 2.90905 6.33924C1.97004 6.42871 1.0292 6.49281 0 6.57026Z" fill="#FDFBFA"/>
<path d="M13.4934 1.08295C14.8638 2.86572 16.1886 4.58906 17.5602 6.37383C17.2342 6.37383 16.9856 6.37717 16.7376 6.37317C16.099 6.36382 15.461 6.34913 14.8224 6.34245C14.6749 6.34112 14.5829 6.30706 14.5439 6.12144C14.2051 4.52296 13.8566 2.92648 13.5123 1.32933C13.5007 1.27591 13.5032 1.22049 13.4934 1.08295Z" fill="#FDFBFA"/>
<path d="M7.08545 6.05263C7.54856 5.33819 7.98546 4.66448 8.42176 3.99076C8.40774 3.97274 8.39373 3.95471 8.38032 3.93668C8.05493 4.0976 7.72953 4.25784 7.40414 4.41876C7.39683 4.40474 7.38891 4.39072 7.38159 4.3767C7.82642 3.98208 8.27125 3.58814 8.68256 3.22357C9.5649 4.16437 10.4326 5.08914 11.3369 6.0533C9.90492 6.05263 8.52291 6.05263 7.08545 6.05263Z" fill="#FDFBFA"/>
<path d="M8.7156 14.6199C8.0508 12.5654 7.386 10.5108 6.72119 8.4563C6.73886 8.44695 6.75714 8.43827 6.77481 8.42892C7.4061 9.57604 8.03739 10.7232 8.70585 11.9377C9.42794 10.4227 10.1232 8.96376 10.8185 7.50482C10.8343 7.51083 10.8508 7.51751 10.8666 7.52352C10.1713 9.88519 9.47669 12.2469 8.78141 14.6085C8.76009 14.6125 8.73815 14.6165 8.7156 14.6199Z" fill="#FDFBFA"/>
<path d="M9.40527 15.0467C9.45341 14.9212 9.50155 14.7963 9.54969 14.6708C9.8629 14.14 10.1834 13.6145 10.4875 13.0783C11.6008 11.1159 12.711 9.15156 13.817 7.18384C13.9224 6.99688 14.0327 6.89339 14.249 6.90607C14.6116 6.92677 14.976 6.91208 15.3562 6.91208C15.327 6.9635 15.2977 7.02893 15.2575 7.08435C13.3594 9.68906 11.4606 12.2924 9.56005 14.8952C9.51678 14.9532 9.45707 14.9966 9.40527 15.0467Z" fill="#FDFBFA"/>
<path d="M10.6197 4.85554C9.99697 4.12975 9.37482 3.40462 8.735 2.6588C8.13235 3.28377 7.57662 3.85933 7.0215 4.43556C6.99956 4.41886 6.97824 4.40217 6.9563 4.38481C7.57053 2.94524 8.18476 1.505 8.82701 0C9.47598 1.62987 10.0987 3.19229 10.7209 4.75472C10.6874 4.78811 10.6539 4.82149 10.6197 4.85554Z" fill="#FDFBFA"/>
<path d="M5.21243 5.14882C4.77247 4.81563 4.377 4.51583 3.96752 4.20535C3.84382 4.36226 3.73353 4.50248 3.61714 4.64937C3.52208 4.24408 3.70428 3.24653 3.9206 2.9534C4.5269 2.13413 5.13321 1.31553 5.74013 0.497588C5.80167 0.414793 5.86992 0.337339 5.96985 0.215149C5.96985 0.788039 5.96985 1.30284 5.96985 1.81831C5.95706 1.82165 5.94365 1.82565 5.93085 1.82899C5.88576 1.51984 5.84067 1.2107 5.79558 0.902217C5.77486 0.900881 5.75414 0.899546 5.73281 0.89821C5.56159 2.29572 5.39097 3.69322 5.21243 5.14882Z" fill="#FDFBFA"/>
<path d="M8.4414 15.4369C7.78696 13.7877 7.17639 12.1151 6.4604 10.4979C6.10332 9.69068 6.08747 8.91281 6.20813 8.08285C6.21239 8.05214 6.23006 8.02343 6.26419 7.93329C7.01735 10.4646 7.75527 12.9444 8.49259 15.4249C8.47553 15.4289 8.45847 15.4329 8.4414 15.4369Z" fill="#FDFBFA"/>
<path d="M1.69653 7.12635C2.01766 7.12635 2.28151 7.11099 2.54232 7.13436C2.63616 7.14304 2.75803 7.22117 2.80738 7.30797C3.53861 8.60131 4.26008 9.90133 4.94804 11.2321C3.87253 9.87462 2.79763 8.51651 1.69653 7.12635Z" fill="#FDFBFA"/>
</svg>
